<svg xmlns="http://www.w3.org/2000/svg" xmlns:xlink="http://www.w3.org/1999/xlink" viewBox="0 0 107.41 28.72">
  <defs>
    <style>
        .cls-1{ fill: none; }
        .cls-2{ clip-path:url(#clip-path); }
        .cls-3{ fill: #fff; }
        .cls-4{ fill: #fff; }
    </style>
    <clipPath id="clip-path">
      <rect class="cls-1" x="-379.84" y="-4466.26" width="2862.2" height="2253.6"></rect>
    </clipPath>
  </defs>
  <title>HeyJobs</title>
  <g id="Ebene_5" data-name="Ebene 5">
    <path class="cls-3" d="M62.63,23.49c-5.49,0-8.79-3.62-8.79-8.72S57.14,6,62.63,6s8.76,3.62,8.76,8.73S68.08,23.49,62.63,23.49Zm0-3.85c2.24,0,3.62-1.7,3.62-4.87s-1.38-4.88-3.62-4.88S59,11.59,59,14.77,60.35,19.64,62.63,19.64Z"></path>
    <path class="cls-3" d="M90.49,14.77c0,5.38-2.79,8.72-7.16,8.72a6.11,6.11,0,0,1-4.74-2.15h-.07V23H73.39V0h5.13V8.19h.07A6.11,6.11,0,0,1,83.33,6C87.7,6,90.49,9.38,90.49,14.77Zm-5.13,0c0-3.21-1.29-4.88-3.37-4.88s-3.37,1.67-3.37,4.88S79.9,19.64,82,19.64,85.36,18,85.36,14.77Z"></path>
    <path class="cls-4" d="M107.41,18.13c0,3.47-2.63,5.36-7.19,5.36-5.87,0-8.12-2.63-8.28-6h4.81C96.92,19.16,98,20,100,20c1.44,0,2.24-.48,2.24-1.41,0-1.41-1.54-1.6-4.14-2.18-2.79-.61-5.87-1.64-5.87-5.07,0-3,2.57-5.26,7.19-5.26,5.26,0,7.31,2.66,7.47,5.55h-4.81c-.16-1.32-.86-2-2.53-2-1.45,0-2.18.51-2.18,1.31,0,1.16,1,1.19,3.56,1.74C104.2,13.32,107.41,14.41,107.41,18.13Z"></path>
    <path class="cls-4" d="M31.75,18h5.12c-.9,3.31-3.48,5.5-7.95,5.5-5.48,0-8.79-3.6-8.79-8.75S23.38,6,28.63,6c5.63,0,8.5,4.12,8.5,10.11H25.28a3.39,3.39,0,0,0,3.54,3.54A2.85,2.85,0,0,0,31.75,18Zm-6.47-5H32a3.13,3.13,0,0,0-3.35-3.45A3.12,3.12,0,0,0,25.28,13Z"></path>
    <path class="cls-3" d="M49.06,2.29A2.3,2.3,0,0,1,51.64,0a2.3,2.3,0,0,1,2.58,2.29,2.28,2.28,0,0,1-2.58,2.28A2.28,2.28,0,0,1,49.06,2.29Z"></path>
    <path class="cls-4" d="M44.31,14.54l-2.46-8H36.69L42,20.5S43.25,17.63,44.31,14.54Z"></path>
    <path class="cls-3" d="M48.77,6.54l-2.06,7.13c-.5,2.05-2.23,8.48-4.67,10.38-.6.66-1.67.78-3,.48H39V28.4a14.06,14.06,0,0,0,2.87.32c3.47,0,5-1.16,6.44-5.38l5.6-16.8Z"></path>
    <path class="cls-4" d="M5.14,0V9h7.78V0h5.14V23H12.92V13.74H5.14V23H0V0Z"></path>
  </g>
</svg>